<?xml version="1.0" encoding="utf-8"?>
<!-- Generator: Adobe Illustrator 18.0.0, SVG Export Plug-In . SVG Version: 6.00 Build 0)  -->
<!DOCTYPE svg PUBLIC "-//W3C//DTD SVG 1.1//EN" "http://www.w3.org/Graphics/SVG/1.1/DTD/svg11.dtd">
<svg version="1.1" id="Layer_1" xmlns="http://www.w3.org/2000/svg" xmlns:xlink="http://www.w3.org/1999/xlink" x="0px" y="0px"
	 viewBox="0 0 1400 1400" enable-background="new 0 0 1400 1400" xml:space="preserve">
<g>
	<g>
		<circle fill="#ECEFF0" cx="713.8" cy="713.8" r="156.1"/>
		<circle fill="#ECEFF0" cx="713.8" cy="1113.1" r="156.1"/>
		<circle fill="#ECEFF0" cx="311.4" cy="314.4" r="156.1"/>
		<circle fill="#ECEFF0" cx="713.8" cy="314.4" r="156.1"/>
		<circle fill="#ECEFF0" cx="311.4" cy="713.8" r="156.1"/>
		<circle fill="#ECEFF0" cx="311.4" cy="1113.1" r="156.1"/>
		<circle fill="#ECEFF0" cx="1116.2" cy="314.4" r="156.1"/>
		<circle fill="#ECEFF0" cx="1116.2" cy="1113.1" r="156.1"/>
		<circle fill="#ECEFF0" cx="1116.2" cy="713.8" r="156.1"/>
	</g>
	<g>
		<g>
			<circle fill="#3CC2D9" cx="693.7" cy="693.7" r="156.1"/>
			<g>
				<g>
					<g>
						<circle fill="#0594A3" cx="699.6" cy="699.6" r="86.3"/>
					</g>
				</g>
			</g>
			<g>
				<circle fill="#FFFFFF" cx="694.4" cy="694.4" r="86.3"/>
				<circle fill="#ECEFF0" cx="694.4" cy="694.4" r="62.4"/>
				<circle fill="#BCC1C6" cx="694.4" cy="620" r="6.5"/>
				<circle fill="#BCC1C6" cx="694.4" cy="768.5" r="6.5"/>
				<circle fill="#BCC1C6" cx="768.6" cy="694.3" r="6.5"/>
				<g>
					<g>
						<g>
							<g>
								<polygon fill="#FFC50B" points="706.5,694.4 682.3,694.4 694.5,656.2 								"/>
							</g>
							<g>
								<polygon fill="#FFC50B" points="682.3,694.4 706.5,694.4 694.3,732.6 								"/>
							</g>
							<g>
								<polygon fill="#FFC50B" points="694.4,706.5 694.4,682.3 732.6,694.5 								"/>
							</g>
							<g>
								<polygon fill="#FFC50B" points="694.4,682.3 694.4,706.5 656.2,694.3 								"/>
							</g>
						</g>
						<g>
							<polygon fill="#C4C6C6" points="699.8,699.6 689.4,689.2 721.6,667.4 							"/>
						</g>
						<g>
							<polygon fill="#C4C6C6" points="689.4,689.2 699.8,699.6 667.5,721.4 							"/>
						</g>
						<g>
							<polygon fill="#FFC50B" points="689.4,699.6 699.8,689.2 721.5,721.4 							"/>
						</g>
						<g>
							<polygon fill="#FFC50B" points="699.8,689.2 689.4,699.6 667.6,667.3 							"/>
						</g>
					</g>
				</g>
				<circle fill="#BCC1C6" cx="620.1" cy="694.3" r="6.5"/>
				<g>
					<g>
						<path fill="#DC1F27" d="M706.3,702.7L682.5,683l40.4-28.1c2.9-2,5.4,0.1,3.9,3.3L706.3,702.7z"/>
						<path fill="#153359" d="M682.5,682.9l23.8,19.8l-40.4,28.1c-2.9,2-5.4-0.1-3.9-3.3L682.5,682.9z"/>
					</g>
					<circle fill="#FFFFFF" cx="694.2" cy="693.1" r="11.2"/>
				</g>
			</g>
			<g>
				<g>
					<g>
						<g>
							<g>
								<path fill="#FFC50B" d="M694,571.8c-67.9,0-123,55.1-123,123s55.1,123,123,123s123-55.1,123-123S761.9,571.8,694,571.8z
									 M694,807.9c-62.5,0-113.1-50.7-113.1-113.1S631.5,581.6,694,581.6s113.1,50.7,113.1,113.1S756.4,807.9,694,807.9z"/>
							</g>
						</g>
					</g>
				</g>
				<path fill="#153359" d="M694.1,571.7c-8.3,0-16.6,1.1-16.6,1.1l16.5,27.6l16.5-27.6C710.4,572.8,702.3,571.7,694.1,571.7z"/>
				<path fill="#153359" d="M693.9,818.3c8.3,0,16.6-1.1,16.6-1.1L694,789.6l-16.5,27.6C677.5,817.2,685.6,818.3,693.9,818.3z"/>
				<path fill="#153359" d="M817.2,695.1c0-8.3-1.1-16.6-1.1-16.6L788.5,695l27.6,16.5C816.1,711.5,817.2,703.3,817.2,695.1z"/>
				<path fill="#153359" d="M570.7,694.9c0,8.3,1.1,16.6,1.1,16.6l27.6-16.5l-27.6-16.5C571.8,678.5,570.7,686.7,570.7,694.9z"/>
			</g>
		</g>
		<g>
			<circle fill="#FFC50B" cx="693.7" cy="1093.1" r="156.1"/>
			<g>
				<circle fill="#F7930F" cx="700" cy="1097" r="107.9"/>
				<g>
					<circle fill="#DC1F27" cx="693.7" cy="1093.1" r="107.9"/>
					<circle fill="#ECEFF0" cx="693.7" cy="1093.1" r="87.2"/>
					<g>
						<g>
							<g>
								<g>
									<polygon fill="#153359" points="734.9,1051.9 693.7,1081.8 699.4,1087.4 									"/>
								</g>
								<g>
									<polygon fill="#153359" points="687.7,1099.1 682,1093.5 652.5,1134.3 									"/>
								</g>
								<g>
									<polygon fill="#153359" points="734.9,1051.9 705,1093.1 699.3,1087.4 									"/>
								</g>
								<g>
									<polygon fill="#153359" points="687.7,1099.1 693.3,1104.8 652.5,1134.3 									"/>
								</g>
							</g>
							<g>
								<g>
									<polygon fill="#153359" points="734.9,1134.3 705,1093.1 699.3,1098.7 									"/>
								</g>
								<g>
									<polygon fill="#153359" points="687.7,1087 693.3,1081.4 652.5,1051.9 									"/>
								</g>
								<g>
									<polygon fill="#153359" points="734.9,1134.3 693.7,1104.3 699.4,1098.7 									"/>
								</g>
								<g>
									<polygon fill="#153359" points="687.7,1087 682,1092.7 652.5,1051.9 									"/>
								</g>
							</g>
						</g>
					</g>
					<g>
						<g>
							<polygon fill="#F7930F" points="759.2,1093.1 701.7,1074.8 701.7,1093.1 							"/>
							<polygon fill="#FFC50B" points="685.2,1093.1 685.2,1074.8 628.3,1093.1 							"/>
							<polygon fill="#FFC50B" points="759.2,1093.1 701.7,1111.4 701.7,1093.1 							"/>
							<polygon fill="#F7930F" points="685.2,1093.1 685.2,1111.4 628.3,1093.1 							"/>
							<polygon fill="#F7930F" points="693.7,1027.6 675.4,1085.1 693.7,1085.1 							"/>
							<polygon fill="#FFC50B" points="693.7,1101.6 675.4,1101.6 693.7,1158.5 							"/>
							<polygon fill="#FFC50B" points="693.7,1027.6 712,1085.1 693.7,1085.1 							"/>
							<polygon fill="#F7930F" points="693.7,1101.6 712,1101.6 693.7,1158.5 							"/>
						</g>
						<g>
							<circle fill="#DC1F27" cx="693.7" cy="1093.1" r="22.3"/>
							<circle fill="#ECEFF0" cx="693.7" cy="1093.1" r="12.7"/>
						</g>
					</g>
					<g>
						<polygon fill="#DC1F27" points="686.6,1005.2 693.7,1018.6 700.8,1005.2 						"/>
						<polygon fill="#DC1F27" points="700.8,1181.3 693.7,1168 686.6,1181.3 						"/>
					</g>
					<polygon fill="#DC1F27" points="781.5,1086 768.2,1093.1 781.5,1100.2 					"/>
					<polygon fill="#DC1F27" points="605.4,1100.2 618.8,1093.1 605.4,1086 					"/>
				</g>
			</g>
			<g>
				<g>
					<polygon fill="#F7930F" points="762.7,1093.1 702.1,1073.8 702.1,1093.1 					"/>
					<polygon fill="#FFC50B" points="684.7,1093.1 684.7,1073.8 624.7,1093.1 					"/>
					<polygon fill="#FFC50B" points="762.7,1093.1 702.1,1112.4 702.1,1093.1 					"/>
					<polygon fill="#F7930F" points="684.7,1093.1 684.7,1112.4 624.7,1093.1 					"/>
					<polygon fill="#F7930F" points="693.7,1024 674.4,1084.7 693.7,1084.7 					"/>
					<polygon fill="#FFC50B" points="693.7,1102.1 674.4,1102.1 693.7,1162.1 					"/>
					<polygon fill="#FFC50B" points="693.7,1024 713,1084.7 693.7,1084.7 					"/>
					<polygon fill="#F7930F" points="693.7,1102.1 713,1102.1 693.7,1162.1 					"/>
				</g>
				<g>
					<circle fill="#3CC2D9" cx="693.7" cy="1093.1" r="22.3"/>
					<circle fill="#DC1F27" cx="693.7" cy="1093.1" r="12.7"/>
				</g>
			</g>
		</g>
		<g>
			<circle fill="#6D8082" cx="291.3" cy="294.4" r="156.1"/>
			<circle opacity="0.69" fill="#4B5D5E" cx="296.7" cy="299.7" r="107.9"/>
			<circle fill="#ECEFF0" cx="291.3" cy="294.4" r="107.9"/>
			<g>
				<g>
					<g>
						<g>
							<polygon fill="#3CC2D9" points="378.2,207.6 291.3,270.6 303.2,282.5 							"/>
						</g>
						<g>
							<polygon fill="#3CC2D9" points="278.6,307.1 266.7,295.2 204.5,381.2 							"/>
						</g>
						<g>
							<polygon fill="#3CC2D9" points="378.1,207.5 315.1,294.4 303.2,282.5 							"/>
						</g>
						<g>
							<polygon fill="#3CC2D9" points="278.6,307.1 290.5,319 204.5,381.2 							"/>
						</g>
					</g>
					<g>
						<g>
							<polygon fill="#3CC2D9" points="378.1,381.2 315.1,294.3 303.2,306.2 							"/>
						</g>
						<g>
							<polygon fill="#3CC2D9" points="278.6,281.6 290.5,269.7 204.5,207.6 							"/>
						</g>
						<g>
							<polygon fill="#3CC2D9" points="378.2,381.2 291.3,318.1 303.2,306.2 							"/>
						</g>
						<g>
							<polygon fill="#3CC2D9" points="278.6,281.6 266.7,293.5 204.5,207.5 							"/>
						</g>
					</g>
				</g>
			</g>
			<g>
				<polygon fill="#FFC50B" points="418.8,294.4 314.5,261.1 291.3,294.4 				"/>
				<polygon fill="#153359" points="418.8,294.3 314.5,327.5 291.3,294.3 				"/>
				<polygon fill="#FFC50B" points="163.8,294.4 268.2,327.6 291.4,294.4 				"/>
				<polygon fill="#153359" points="163.8,294.4 268.2,261.2 291.4,294.4 				"/>
				<polygon fill="#FFC50B" points="291.4,166.9 258.1,264.4 291.4,294.4 				"/>
				<polygon fill="#153359" points="291.3,166.9 324.5,264.4 291.3,294.4 				"/>
				<polygon fill="#FFC50B" points="291.3,421.9 324.5,324 291.3,294.3 				"/>
				<polygon fill="#153359" points="291.4,421.9 258.1,324 291.4,294.3 				"/>
			</g>
			<g>
				<path fill="#FFFFFF" d="M284.5,162.6v-16.5h4.3l3.4,6c1,1.7,2,3.8,2.7,5.6h0.1c-0.2-2.2-0.3-4.4-0.3-6.9v-4.8h3.4v16.5h-3.9
					l-3.5-6.4c-1-1.8-2.1-3.9-2.9-5.8l-0.1,0c0.1,2.2,0.1,4.5,0.1,7.2v5H284.5z"/>
			</g>
			<g>
				<path fill="#FFFFFF" d="M286.4,437c1,0.5,2.5,1,4.1,1c1.7,0,2.6-0.7,2.6-1.8c0-1-0.8-1.6-2.8-2.3c-2.7-1-4.5-2.5-4.5-4.9
					c0-2.8,2.3-5,6.2-5c1.9,0,3.2,0.4,4.2,0.8l-0.8,3c-0.7-0.3-1.8-0.8-3.4-0.8c-1.6,0-2.4,0.7-2.4,1.6c0,1.1,0.9,1.5,3.1,2.3
					c2.9,1.1,4.3,2.6,4.3,4.9c0,2.8-2.1,5.1-6.6,5.1c-1.9,0-3.7-0.5-4.7-1L286.4,437z"/>
			</g>
			<g>
				<path fill="#FFFFFF" d="M145.9,301.7l-3.9-16.5h4l1.2,6.8c0.4,2,0.7,4.1,1,5.7h0c0.3-1.8,0.7-3.8,1.1-5.8l1.4-6.7h4l1.3,6.9
					c0.4,1.9,0.6,3.7,0.9,5.5h0c0.2-1.8,0.6-3.8,1-5.7l1.3-6.7h3.8l-4.3,16.5h-4l-1.4-7.1c-0.3-1.7-0.6-3.2-0.8-5.1h0
					c-0.3,1.9-0.6,3.4-1,5.1l-1.6,7.1H145.9z"/>
			</g>
			<g>
				<path fill="#FFFFFF" d="M433.9,294.7h-6.1v3.9h6.8v3.1h-10.5v-16.5h10.2v3.1h-6.4v3.4h6.1V294.7z"/>
			</g>
		</g>
		<g>
			<circle fill="#153359" cx="693.7" cy="294.4" r="156.1"/>
			<circle fill="#0B2847" cx="699.9" cy="300.5" r="70.2"/>
			<circle fill="#3CC2D9" cx="695" cy="295.7" r="70.2"/>
			<g>
				<g>
					<g>
						<circle fill="#3CC2D9" cx="693.7" cy="171.7" r="8.2"/>
					</g>
					<g>
						<circle fill="#3CC2D9" cx="693.7" cy="418.6" r="8.2"/>
					</g>
					<g>
						<g>
							<circle fill="#3CC2D9" cx="817.1" cy="295.2" r="8.2"/>
						</g>
						<g>
							<circle fill="#3CC2D9" cx="570.3" cy="295.2" r="8.2"/>
						</g>
					</g>
				</g>
			</g>
			<g>
				<path fill="#ECEFF0" d="M694,195.9c-54.7,0-99.1,44.4-99.1,99.1s44.4,99.1,99.1,99.1c54.7,0,99.1-44.4,99.1-99.1
					S748.7,195.9,694,195.9z M694,386.2c-50.3,0-91.2-40.8-91.2-91.2s40.8-91.2,91.2-91.2c50.3,0,91.2,40.8,91.2,91.2
					S744.3,386.2,694,386.2z"/>
			</g>
			<g>
				<path fill="#ECEFF0" d="M765.8,206l-99.4,61.5c-1.8,1.2-2,3.7-0.5,5.3c-1.8-1.2-4.2-0.5-5.1,1.4l-43.6,109.3
					c-1.5,3.2,2.3,6.4,5.2,4.3l98.5-62.4c1.8-1.2,2-3.7,0.5-5.3c1.8,1.2,4.2,0.5,5.1-1.4L771,210.4C772.5,207.1,768.8,204,765.8,206
					z"/>
				<circle fill="#FFC50B" cx="693.7" cy="297.6" r="41.5"/>
				<circle fill="#DC1F27" cx="693.7" cy="297.6" r="26.6"/>
			</g>
		</g>
		<g>
			<circle fill="#153359" cx="291.3" cy="693.7" r="156.1"/>
			<g>
				<path fill="#DC1F27" d="M299.9,589.9l-8.6,14.4l-8.6-14.4c-48.5,4.1-87,42.8-91,91.3l14.2,8.5l-14.2,8.5
					c4.2,48.4,42.8,86.9,91.2,90.9l8.4-14l8.4,14c48.4-4,87.1-42.5,91.2-90.9l-14.2-8.5l14.2-8.5C387,632.7,348.4,594,299.9,589.9z"
					/>
				<path fill="#ECEFF0" d="M291.3,546.4c-81.4,0-147.3,66-147.3,147.3S210,841,291.3,841s147.3-66,147.3-147.3
					S372.7,546.4,291.3,546.4z M305.9,799.6l0.3,0.4c0,0-7.5,1-15,1c-7.4,0-14.8-1-14.8-1l0.3-0.4c-49.5-6.5-88.8-45.7-95.4-95.2
					l-0.3,0.2c0,0-1-7.5-1-15c0-7.4,1-14.8,1-14.8l0.2,0.1c6.5-49.6,45.7-88.9,95.2-95.5l0,0c0,0,7.5-1,15-1c7.4,0,14.8,1,14.8,1
					l0,0c49.6,6.6,88.8,45.9,95.2,95.5l0.2-0.1c0,0,1,7.5,1,15c0,7.4-1,14.8-1,14.8l-0.3-0.2C394.7,754,355.5,793.1,305.9,799.6z"/>
				<path fill="#3CC2D9" d="M191.7,698.2l-10.4,6.2c6.7,49.5,45.9,88.6,95.4,95.2l6.2-10.5C234.5,785.1,195.9,746.6,191.7,698.2z"/>
				<path fill="#3CC2D9" d="M391,681.2l10.5-6.2c-6.5-49.6-45.7-88.9-95.2-95.5l-6.2,10.4C348.4,594,387,632.7,391,681.2z"/>
				<path fill="#3CC2D9" d="M282.7,589.9l-6.2-10.4c-49.6,6.6-88.8,45.9-95.2,95.5l10.5,6.2C195.7,632.7,234.2,594,282.7,589.9z"/>
				<path fill="#3CC2D9" d="M299.7,789.2l6.2,10.5c49.5-6.5,88.8-45.7,95.4-95.2l-10.4-6.2C386.8,746.6,348.1,785.1,299.7,789.2z"/>
				<path fill="#153359" d="M299.9,589.9c-2.8-0.2-5.7-0.4-8.6-0.4c-2.9,0-5.8,0.2-8.6,0.4l8.6,14.4L299.9,589.9z"/>
				<path fill="#153359" d="M306.2,579.5L306.2,579.5c0,0-7.4-1.1-14.8-1.1c-7.5,0-15,1-15,1l0,0c4.9-0.7,9.8-1,14.9-1
					C296.4,578.4,301.3,578.8,306.2,579.5z"/>
				<path fill="#153359" d="M291.3,589.5c2.9,0,5.8,0.2,8.6,0.4l6.2-10.4c-4.9-0.7-9.8-1-14.9-1c-5,0-10,0.4-14.9,1l6.2,10.4
					C285.5,589.7,288.4,589.5,291.3,589.5z"/>
				<path fill="#153359" d="M276.7,799.6l-0.3,0.4c0,0,7.4,1,14.8,1c7.5,0,15-1,15-1l-0.3-0.4c-4.8,0.6-9.7,1-14.6,1
					C286.4,800.6,281.5,800.2,276.7,799.6z"/>
				<path fill="#153359" d="M283,789.2c2.8,0.2,5.6,0.4,8.4,0.4s5.6-0.1,8.4-0.4l-8.4-14L283,789.2z"/>
				<path fill="#153359" d="M291.3,789.5c-2.8,0-5.6-0.1-8.4-0.4l-6.2,10.5c4.8,0.6,9.7,1,14.6,1c5,0,9.8-0.4,14.6-1l-6.2-10.5
					C296.9,789.4,294.1,789.5,291.3,789.5z"/>
				<path fill="#153359" d="M402.7,689.8c0-7.5-1-15-1-15l-0.2,0.1c0.6,4.8,1,9.6,1,14.5c0,5.1-0.4,10-1,14.9l0.3,0.2
					C401.6,704.6,402.7,697.2,402.7,689.8z"/>
				<path fill="#153359" d="M390.9,698.2c0.2-2.9,0.4-5.8,0.4-8.7c0-2.8-0.1-5.6-0.4-8.3l-14.2,8.5L390.9,698.2z"/>
				<path fill="#153359" d="M401.4,675l-10.5,6.2c0.2,2.7,0.4,5.5,0.4,8.3c0,2.9-0.2,5.8-0.4,8.7l10.4,6.2c0.7-4.9,1-9.9,1-14.9
					C402.4,684.6,402.1,679.7,401.4,675z"/>
				<path fill="#153359" d="M191.7,681.2c-0.2,2.7-0.4,5.5-0.4,8.3c0,2.9,0.2,5.8,0.4,8.7l14.2-8.5L191.7,681.2z"/>
				<path fill="#153359" d="M181.2,675l-0.2-0.1c0,0-1,7.4-1,14.8c0,7.5,1,15,1,15l0.3-0.2c-0.7-4.9-1-9.9-1-14.9
					C180.2,684.6,180.6,679.7,181.2,675z"/>
				<path fill="#153359" d="M191.3,689.5c0-2.8,0.1-5.6,0.4-8.3l-10.5-6.2c-0.6,4.8-1,9.6-1,14.5c0,5.1,0.4,10,1,14.9l10.4-6.2
					C191.5,695.4,191.3,692.5,191.3,689.5z"/>
			</g>
			<polygon fill="#C40816" points="372.4,690 372.5,690 372.4,690 372.5,690 372.4,690 312.6,671 291.6,609.2 291.6,609.1 
				291.6,609.2 291.5,609.1 291.5,609.2 270.5,671 210.7,690 210.6,690 210.7,690 210.6,690.1 210.7,690.1 270.6,709.1 291.5,770.9 
				291.5,770.9 291.6,770.9 291.6,770.9 291.6,770.9 312.5,709.1 			"/>
			<g>
				<g>
					<path fill="#3CC2D9" d="M276.5,707.5l29.6-35.7l42.1,60.4c3,4.3-0.2,8.1-5,5.9L276.5,707.5z"/>
					<path fill="#153359" d="M306.2,671.9l-29.6,35.7l-42.1-60.4c-3-4.3,0.2-8.1,5-5.9L306.2,671.9z"/>
				</g>
				<circle fill="#FFC50B" cx="290.9" cy="689.4" r="16.7"/>
			</g>
			<g>
				<g>
					<g>
						<path fill="#153359" d="M283.4,569.8v-16.5h4.3l3.4,6c1,1.7,2,3.8,2.7,5.6h0.1c-0.2-2.2-0.3-4.4-0.3-6.9v-4.8h3.4v16.5h-3.9
							l-3.5-6.4c-1-1.8-2.1-3.9-2.9-5.8l-0.1,0c0.1,2.2,0.1,4.5,0.1,7.2v5H283.4z"/>
					</g>
					<g>
						<path fill="#153359" d="M285.3,822.3c1,0.5,2.5,1,4.1,1c1.7,0,2.6-0.7,2.6-1.8c0-1-0.8-1.6-2.8-2.3c-2.7-1-4.5-2.5-4.5-4.9
							c0-2.8,2.3-5,6.2-5c1.9,0,3.2,0.4,4.2,0.8l-0.8,3c-0.7-0.3-1.8-0.8-3.4-0.8c-1.6,0-2.4,0.7-2.4,1.6c0,1.1,0.9,1.5,3.1,2.3
							c2.9,1.1,4.3,2.6,4.3,4.9c0,2.8-2.1,5.1-6.6,5.1c-1.9,0-3.7-0.5-4.7-1L285.3,822.3z"/>
					</g>
					<g>
						<path fill="#153359" d="M157.3,697.8l-3.9-16.5h4l1.2,6.8c0.4,2,0.7,4.1,1,5.7h0c0.3-1.8,0.7-3.8,1.1-5.8l1.4-6.7h4l1.3,6.9
							c0.4,1.9,0.6,3.7,0.9,5.5h0c0.2-1.8,0.6-3.8,1-5.7l1.3-6.7h3.8l-4.3,16.5h-4l-1.4-7.1c-0.3-1.7-0.6-3.2-0.8-5.1h0
							c-0.3,1.9-0.6,3.4-1,5.1l-1.6,7.1H157.3z"/>
					</g>
					<g>
						<path fill="#153359" d="M419.6,690.8h-6.1v3.9h6.8v3.1h-10.5v-16.5H420v3.1h-6.4v3.4h6.1V690.8z"/>
					</g>
				</g>
			</g>
		</g>
		<g>
			<circle fill="#153359" cx="291.3" cy="1093.1" r="156.1"/>
			<circle fill="#FFFFFF" cx="291.3" cy="1093.1" r="80.4"/>
			<g>
				<g>
					<path fill="#FFFFFF" d="M282.1,982.5v-22.4h5.9l4.6,8.2c1.3,2.4,2.7,5.1,3.7,7.7h0.1c-0.3-3-0.4-6-0.4-9.3v-6.5h4.6v22.4h-5.3
						l-4.8-8.6c-1.3-2.4-2.8-5.3-3.9-7.9l-0.1,0c0.1,3,0.2,6.1,0.2,9.8v6.7H282.1z"/>
				</g>
				<g>
					<path fill="#FFFFFF" d="M284.7,1220.6c1.4,0.7,3.5,1.4,5.6,1.4c2.3,0,3.6-1,3.6-2.4c0-1.4-1.1-2.2-3.8-3.2
						c-3.7-1.3-6.1-3.4-6.1-6.6c0-3.8,3.2-6.7,8.5-6.7c2.5,0,4.4,0.5,5.7,1.1l-1.1,4.1c-0.9-0.4-2.5-1.1-4.7-1.1
						c-2.2,0-3.3,1-3.3,2.2c0,1.4,1.3,2.1,4.1,3.2c4,1.5,5.8,3.5,5.8,6.7c0,3.8-2.9,6.9-9,6.9c-2.6,0-5.1-0.7-6.3-1.4L284.7,1220.6z
						"/>
				</g>
				<g>
					<path fill="#FFFFFF" d="M157.2,1102.2l-5.3-22.4h5.4l1.7,9.2c0.5,2.7,1,5.5,1.3,7.8h0.1c0.4-2.4,0.9-5.1,1.5-7.9l1.9-9.2h5.4
						l1.8,9.4c0.5,2.6,0.9,5,1.2,7.5h0.1c0.3-2.5,0.8-5.1,1.3-7.8l1.8-9.2h5.1l-5.8,22.4h-5.5l-1.9-9.6c-0.4-2.3-0.8-4.3-1.1-6.9
						h-0.1c-0.4,2.5-0.8,4.6-1.3,6.9l-2.1,9.6H157.2z"/>
				</g>
				<g>
					<path fill="#FFFFFF" d="M416.8,1092.7h-8.2v5.3h9.2v4.1h-14.3v-22.4h13.8v4.1h-8.7v4.6h8.2V1092.7z"/>
				</g>
			</g>
			<g>
				<g>
					<g>
						<polygon fill="#FFFFFF" points="292.8,999.2 285.4,1014.9 300.2,1014.9 						"/>
					</g>
					<g>
						<polygon fill="#FFFFFF" points="292.8,1186.5 300.2,1170.8 285.4,1170.8 						"/>
					</g>
					<g>
						<polygon fill="#FFFFFF" points="386.4,1092.9 370.7,1085.4 370.7,1100.3 						"/>
					</g>
					<g>
						<polygon fill="#FFFFFF" points="199.1,1092.9 214.8,1100.3 214.8,1085.4 						"/>
					</g>
					<g>
						<g>
							<g>
								<path fill="#3CC2D9" d="M291.4,1020.2c-40.2,0-72.9,32.6-72.9,72.9s32.6,72.9,72.9,72.9c40.2,0,72.9-32.6,72.9-72.9
									S331.7,1020.2,291.4,1020.2z M291.4,1156.1c-34.8,0-63-28.2-63-63c0-34.8,28.2-63,63-63s63,28.2,63,63
									C354.5,1127.9,326.2,1156.1,291.4,1156.1z"/>
							</g>
						</g>
					</g>
				</g>
			</g>
			<g>
				<path fill="#FFC50B" d="M274.3,969.9c-55.1,6.4-99.1,48.9-107.9,103.2h8.1c8.6-49.9,49.1-88.9,99.8-95.2V969.9z"/>
				<path fill="#FFC50B" d="M305.3,970.1v8c49.7,7.1,89.3,45.7,97.8,95h8.1C402.6,1019.5,359.5,977.4,305.3,970.1z"/>
				<path fill="#FFC50B" d="M274.3,1208.2c-52.1-6.5-93.5-47.6-100.5-99.6h-8c7.1,56.4,52,101,108.5,107.6V1208.2z"/>
				<path fill="#FFC50B" d="M403.8,1108.6c-6.9,51.3-47.3,92.1-98.5,99.4v8c55.6-7.4,99.5-51.6,106.5-107.4H403.8z"/>
			</g>
			<polygon fill="#DC1F27" points="322.3,1054.6 240.8,1079.8 279.6,1097 297.1,1136.1 			"/>
			<g>
				<g>
					<g>
						<path fill="#DC1F27" d="M286.5,1195.5c-1.7-0.1-3.4-0.2-5.1-0.4l0.3-2.6c1.6,0.2,3.3,0.3,4.9,0.3L286.5,1195.5z M296.3,1192.9
							c1.6-0.1,3.3-0.2,4.9-0.4l0.3,2.6c-1.7,0.2-3.4,0.3-5.1,0.4L296.3,1192.9z M271.6,1193.7c-1.7-0.3-3.3-0.7-5-1.1l0.6-2.5
							c1.6,0.4,3.2,0.7,4.8,1.1L271.6,1193.7z M310.7,1191.1c1.6-0.3,3.2-0.7,4.8-1.1l0.7,2.5c-1.6,0.4-3.3,0.8-5,1.1L310.7,1191.1z
							 M257.2,1189.8c-1.6-0.6-3.2-1.2-4.8-1.8l1-2.4c1.5,0.6,3.1,1.2,4.6,1.8L257.2,1189.8z M324.8,1187.3c1.5-0.5,3.1-1.1,4.6-1.8
							l1,2.4c-1.6,0.6-3.2,1.3-4.8,1.8L324.8,1187.3z M243.5,1183.8c-1.5-0.8-3-1.6-4.4-2.5l1.3-2.2c1.4,0.8,2.8,1.6,4.3,2.4
							L243.5,1183.8z M338.1,1181.4c1.4-0.8,2.9-1.6,4.3-2.4l1.4,2.2c-1.5,0.9-2.9,1.7-4.4,2.5L338.1,1181.4z M230.8,1175.8
							c-1.4-1-2.7-2-4-3.1l1.7-2c1.3,1,2.6,2,3.9,3L230.8,1175.8z M350.5,1173.6c1.3-1,2.6-2,3.9-3l1.7,2c-1.3,1.1-2.7,2.1-4,3.1
							L350.5,1173.6z M219.4,1166.1c-1.2-1.2-2.4-2.4-3.5-3.7l1.9-1.7c1.1,1.2,2.2,2.4,3.4,3.5L219.4,1166.1z M361.6,1164.2
							c1.2-1.1,2.3-2.3,3.4-3.5l1.9,1.7c-1.1,1.2-2.3,2.5-3.5,3.7L361.6,1164.2z M209.5,1154.9c-1-1.4-2-2.7-3-4.1l2.2-1.4
							c0.9,1.3,1.9,2.7,2.9,4L209.5,1154.9z M371.2,1153.2c1-1.3,1.9-2.6,2.9-4l2.2,1.4c-1,1.4-1.9,2.8-3,4.1L371.2,1153.2z
							 M201.4,1142.4c-0.8-1.5-1.6-3-2.3-4.5l2.3-1.1c0.7,1.5,1.5,2.9,2.3,4.4L201.4,1142.4z M379.1,1140.9c0.8-1.4,1.5-2.9,2.2-4.4
							l2.3,1.1c-0.7,1.5-1.5,3-2.3,4.5L379.1,1140.9z M195.2,1128.8c-0.6-1.6-1.1-3.2-1.7-4.8l2.5-0.8c0.5,1.6,1,3.1,1.6,4.6
							L195.2,1128.8z M385.1,1127.6c0.6-1.5,1.1-3.1,1.6-4.7l2.5,0.7c-0.5,1.6-1.1,3.2-1.7,4.8L385.1,1127.6z M191,1114.4
							c-0.4-1.7-0.7-3.4-0.9-5l2.6-0.4c0.3,1.6,0.6,3.2,0.9,4.8L191,1114.4z M389.1,1113.6c0.3-1.6,0.6-3.2,0.9-4.8l2.6,0.4
							c-0.3,1.7-0.6,3.4-0.9,5L389.1,1113.6z M189,1099.6c-0.1-1.7-0.2-3.4-0.2-5.1l2.6,0c0,1.6,0.1,3.3,0.2,4.9L189,1099.6z
							 M391.1,1099.2c0.1-1.8,0.2-3.6,0.2-5.3h2.6c0,1.8-0.1,3.7-0.2,5.5L391.1,1099.2z M189.1,1084.6c0.1-1.7,0.3-3.4,0.5-5.1
							l2.6,0.4c-0.2,1.6-0.4,3.2-0.5,4.9L189.1,1084.6z M390.9,1084.2c-0.1-1.7-0.3-3.3-0.6-4.9l2.6-0.4c0.2,1.7,0.4,3.4,0.6,5.1
							L390.9,1084.2z M191.4,1069.8c0.4-1.7,0.8-3.3,1.3-4.9l2.5,0.7c-0.5,1.6-0.9,3.2-1.2,4.8L191.4,1069.8z M388.5,1069.8
							c-0.4-1.6-0.8-3.2-1.3-4.7l2.5-0.8c0.5,1.6,0.9,3.3,1.3,4.9L388.5,1069.8z M195.9,1055.6c0.6-1.6,1.3-3.2,2-4.7l2.3,1.1
							c-0.7,1.5-1.3,3-1.9,4.5L195.9,1055.6z M384.1,1055.9c-0.6-1.5-1.3-3-1.9-4.5l2.3-1.1c0.7,1.6,1.4,3.1,2,4.7L384.1,1055.9z
							 M202.4,1042.1c0.8-1.5,1.7-2.9,2.7-4.4l2.2,1.4c-0.9,1.4-1.7,2.8-2.5,4.2L202.4,1042.1z M377.7,1042.8
							c-0.8-1.4-1.7-2.8-2.6-4.2l2.2-1.4c0.9,1.4,1.8,2.9,2.7,4.3L377.7,1042.8z M210.8,1029.7c1-1.3,2.1-2.6,3.2-3.9l1.9,1.7
							c-1.1,1.2-2.1,2.5-3.1,3.8L210.8,1029.7z M369.5,1030.8c-1-1.3-2.1-2.5-3.2-3.8l1.9-1.7c1.1,1.3,2.2,2.6,3.3,3.9L369.5,1030.8
							z M220.8,1018.6c1.2-1.2,2.5-2.3,3.8-3.4l1.7,2c-1.3,1.1-2.5,2.2-3.6,3.3L220.8,1018.6z M359.6,1020.1
							c-1.2-1.1-2.4-2.2-3.7-3.3l1.7-2c1.3,1.1,2.6,2.2,3.8,3.4L359.6,1020.1z M232.4,1009.1c1.4-1,2.8-1.9,4.2-2.8l1.4,2.2
							c-1.4,0.9-2.8,1.8-4.1,2.7L232.4,1009.1z M348.2,1010.9c-1.3-0.9-2.7-1.8-4.1-2.7l1.3-2.2c1.4,0.9,2.9,1.8,4.3,2.8
							L348.2,1010.9z M245.3,1001.5c1.5-0.7,3-1.5,4.6-2.2l1,2.4c-1.5,0.7-3,1.4-4.4,2.1L245.3,1001.5z M335.7,1003.5
							c-1.5-0.7-3-1.4-4.5-2.1l1-2.4c1.6,0.7,3.1,1.4,4.6,2.2L335.7,1003.5z M259.1,995.7c1.6-0.5,3.2-1,4.9-1.5l0.7,2.5
							c-1.6,0.4-3.2,0.9-4.7,1.4L259.1,995.7z M322.1,998c-1.6-0.5-3.1-1-4.7-1.4l0.6-2.5c1.6,0.4,3.3,0.9,4.9,1.5L322.1,998z
							 M273.6,992.1c1.7-0.3,3.4-0.5,5-0.8l0.3,2.6c-1.6,0.2-3.3,0.4-4.9,0.7L273.6,992.1z M308,994.5c-1.6-0.3-3.2-0.5-4.9-0.7
							l0.3-2.6c1.7,0.2,3.4,0.4,5,0.7L308,994.5z M288.4,990.6c0.9,0,1.9,0,2.8,0c0.8,0,1.5,0,2.3,0l-0.1,2.6c-0.7,0-1.4,0-2.2,0
							c-0.9,0-1.8,0-2.7,0L288.4,990.6z"/>
					</g>
				</g>
			</g>
		</g>
		<g>
			<circle fill="#6D8082" cx="1096.1" cy="294.4" r="156.1"/>
			<circle fill="#153359" cx="1097" cy="294.4" r="116.5"/>
			<circle fill="#FFC50B" cx="1097" cy="294.4" r="97.4"/>
			<ellipse fill="#F7930F" cx="1096.8" cy="294.1" rx="49.3" ry="49.5"/>
			<g>
				<g>
					<g>
						<g>
							<g>
								<path fill="#153359" d="M1090.1,167.9v-17.5h4.6l3.6,6.4c1,1.8,2.1,4,2.9,6h0.1c-0.3-2.3-0.3-4.7-0.3-7.3v-5.1h3.6v17.5
									h-4.1l-3.7-6.7c-1-1.9-2.2-4.1-3-6.2l-0.1,0c0.1,2.3,0.2,4.8,0.2,7.6v5.3H1090.1z"/>
							</g>
						</g>
					</g>
					<g>
						<g>
							<g>
								<path fill="#153359" d="M1092.2,436.1c1.1,0.5,2.7,1.1,4.4,1.1c1.8,0,2.8-0.8,2.8-1.9c0-1.1-0.8-1.7-2.9-2.5
									c-2.9-1-4.8-2.6-4.8-5.2c0-3,2.5-5.3,6.6-5.3c2,0,3.4,0.4,4.5,0.9l-0.9,3.2c-0.7-0.3-1.9-0.8-3.7-0.8
									c-1.7,0-2.5,0.8-2.5,1.7c0,1.1,1,1.6,3.2,2.5c3.1,1.1,4.5,2.8,4.5,5.2c0,2.9-2.3,5.4-7.1,5.4c-2,0-4-0.5-5-1.1L1092.2,436.1
									z"/>
							</g>
						</g>
					</g>
					<g>
						<g>
							<g>
								<path fill="#153359" d="M956.2,303.8l-4.2-17.5h4.2l1.3,7.2c0.4,2.1,0.8,4.3,1,6.1h0.1c0.3-1.9,0.7-4,1.1-6.1l1.5-7.2h4.2
									l1.4,7.4c0.4,2,0.7,3.9,0.9,5.9h0.1c0.3-1.9,0.6-4,1-6.1l1.4-7.2h4l-4.5,17.5h-4.3l-1.5-7.5c-0.3-1.8-0.6-3.4-0.8-5.4h-0.1
									c-0.3,2-0.6,3.6-1,5.4l-1.7,7.5H956.2z"/>
							</g>
						</g>
					</g>
					<g>
						<g>
							<g>
								<path fill="#153359" d="M1234.7,296.4h-6.4v4.2h7.2v3.2h-11.2v-17.5h10.8v3.2h-6.8v3.6h6.4V296.4z"/>
							</g>
						</g>
					</g>
				</g>
			</g>
			<g>
				<g>
					<g>
						<rect x="1093.4" y="194.5" fill="#ECEFF0" width="4.3" height="14"/>
					</g>
					<g>
						<g>
							<g>
								<rect x="1092.4" y="194.5" fill="#153359" width="6.5" height="14"/>
							</g>
						</g>
					</g>
					<g>
						<g>
							<g>
								<rect x="1092.4" y="379.9" fill="#153359" width="6.5" height="14"/>
							</g>
						</g>
					</g>
					<g>
						<g>
							<rect x="1181.3" y="292" fill="#ECEFF0" width="14" height="4.3"/>
						</g>
						<g>
							<g>
								<g>
									<rect x="1181.3" y="291" fill="#153359" width="14" height="6.5"/>
								</g>
							</g>
						</g>
						<g>
							<g>
								<g>
									<rect x="995.9" y="291" fill="#153359" width="14" height="6.5"/>
								</g>
							</g>
						</g>
					</g>
					<g>
						<g>
							
								<rect x="1159" y="221.6" transform="matrix(0.7071 0.7071 -0.7071 0.7071 501.7633 -754.0935)" fill="#ECEFF0" width="4.3" height="14"/>
						</g>
						<g>
							<g>
								<g>
									
										<rect x="1157.9" y="221.6" transform="matrix(0.7071 0.7071 -0.7071 0.7071 501.7633 -754.0935)" fill="#153359" width="6.5" height="14"/>
								</g>
							</g>
						</g>
						<g>
							<g>
								<g>
									
										<rect x="1026.8" y="352.7" transform="matrix(0.7071 0.7071 -0.7071 0.7071 556.0656 -622.9964)" fill="#153359" width="6.5" height="14"/>
								</g>
							</g>
						</g>
						<g>
							<g>
								
									<rect x="1154.1" y="357.6" transform="matrix(0.7071 0.7071 -0.7071 0.7071 594.4058 -715.6659)" fill="#ECEFF0" width="14" height="4.3"/>
							</g>
							<g>
								<g>
									<g>
										
											<rect x="1154.1" y="356.5" transform="matrix(0.7071 0.7071 -0.7071 0.7071 594.4058 -715.6659)" fill="#153359" width="14" height="6.5"/>
									</g>
								</g>
							</g>
							<g>
								<g>
									<g>
										
											<rect x="1023" y="225.4" transform="matrix(0.7071 0.7071 -0.7071 0.7071 463.4131 -661.424)" fill="#153359" width="14" height="6.5"/>
									</g>
								</g>
							</g>
						</g>
					</g>
				</g>
			</g>
			<g>
				<g>
					<g>
						<g>
							<g>
								<g>
									<polygon fill="#3CC2D9" points="1137.6,253.2 1096.6,282.9 1102.2,288.5 									"/>
								</g>
								<g>
									<polygon fill="#3CC2D9" points="1090.6,300.1 1085,294.5 1055.7,335 									"/>
								</g>
								<g>
									<polygon fill="#3CC2D9" points="1137.6,253.1 1107.8,294.1 1102.2,288.5 									"/>
								</g>
								<g>
									<polygon fill="#3CC2D9" points="1090.6,300.1 1096.2,305.7 1055.7,335 									"/>
								</g>
							</g>
						</g>
					</g>
				</g>
				<g>
					<g>
						<polygon fill="#DC1F27" points="1086.7,284.1 1106.3,302.8 1041.6,350.1 						"/>
						<polygon fill="#153359" points="1106.3,302.9 1086.6,284.2 1152.5,238.1 						"/>
					</g>
					<circle fill="#3CC2D9" cx="1095.9" cy="293.4" r="10.2"/>
				</g>
			</g>
			<path fill="#ECEFF0" d="M1097,189.4c-57.9,0-104.9,47-104.9,104.9s47,104.9,104.9,104.9c57.9,0,104.9-47,104.9-104.9
				S1155,189.4,1097,189.4z M1097,391.7c-53.8,0-97.4-43.6-97.4-97.4s43.6-97.4,97.4-97.4c53.8,0,97.4,43.6,97.4,97.4
				S1150.8,391.7,1097,391.7z"/>
		</g>
		<g>
			<circle fill="#DC1F27" cx="1096.1" cy="1093.1" r="156.1"/>
			<circle fill="#3CC2D9" cx="1096.1" cy="1093.1" r="103.5"/>
			<g>
				<path fill="#153359" d="M1105.9,979.7c-6.5-0.5-13-0.5-19.5,0l9.7,16.3L1105.9,979.7z"/>
				<path fill="#153359" d="M1086.5,1206.1c6.4,0.5,12.8,0.5,19.1,0l-9.6-16L1086.5,1206.1z"/>
				<path fill="#153359" d="M1209.5,1083.3l-16.4,9.8l16.3,9.7C1210,1096.3,1210,1089.8,1209.5,1083.3z"/>
				<path fill="#153359" d="M983.1,1083.5c-0.5,6.4-0.5,12.8,0,19.1l16-9.5L983.1,1083.5z"/>
				<path fill="#153359" d="M1183.2,1019.8c-2.1-2.5-4.3-4.9-6.6-7.2s-4.8-4.5-7.2-6.6l-4.7,18.5L1183.2,1019.8z"/>
				<path fill="#153359" d="M1009.5,1166.2c2,2.4,4.2,4.8,6.4,7c2.3,2.3,4.6,4.4,7,6.4l4.5-18L1009.5,1166.2z"/>
				<path fill="#153359" d="M1169.3,1179.9c2.5-2.1,5-4.3,7.3-6.7c2.2-2.2,4.3-4.6,6.4-7l-18.3-4.6L1169.3,1179.9z"/>
				<path fill="#153359" d="M1022.9,1006.2c-2.4,2-4.7,4.1-7,6.4c-2.4,2.4-4.6,4.8-6.7,7.3l18.2,4.6L1022.9,1006.2z"/>
				<g>
					<g>
						<g>
							<path fill="#ECEFF0" d="M1169.4,1006l1.7-6.8c-18.2-14.6-39.6-23-61.6-25.5l-3.6,6C1128.6,981.6,1150.9,990.4,1169.4,1006z"
								/>
						</g>
						<g>
							<path fill="#ECEFF0" d="M1023,1179.7l-1.7,6.8c18.2,14.6,39.7,23.2,61.7,25.6l3.6-6C1063.7,1204.2,1041.4,1195.3,1023,1179.7
								z"/>
						</g>
						<g>
							<path fill="#ECEFF0" d="M1086.3,979.7l-3.6-6c-22,2.5-43.4,11-61.6,25.6l1.7,6.8C1041.3,990.6,1063.6,981.7,1086.3,979.7z"/>
						</g>
						<g>
							<path fill="#ECEFF0" d="M1209.4,1102.8c-2,22.8-10.8,45-26.5,63.5l6.8,1.7c14.6-18.2,23.2-39.6,25.6-61.6L1209.4,1102.8z"/>
						</g>
						<g>
							<path fill="#ECEFF0" d="M1009.3,1019.9l-6.8-1.7c-14.6,18.2-23,39.7-25.4,61.8l6,3.6
								C984.9,1060.7,993.7,1038.4,1009.3,1019.9z"/>
						</g>
						<g>
							<path fill="#ECEFF0" d="M1209.5,1083.3l6-3.6c-2.4-22-10.9-43.4-25.5-61.6l-6.8,1.7
								C1198.8,1038.3,1207.5,1060.6,1209.5,1083.3z"/>
						</g>
						<g>
							<path fill="#ECEFF0" d="M1105.7,1206.1l3.6,6c22-2.4,43.5-10.9,61.8-25.4l-1.7-6.8
								C1150.8,1195.5,1128.4,1204.2,1105.7,1206.1z"/>
						</g>
						<g>
							<path fill="#ECEFF0" d="M983.1,1102.6l-6,3.6c2.4,22,11,43.5,25.6,61.7l6.8-1.7C993.8,1147.7,985,1125.4,983.1,1102.6z"/>
						</g>
						<g>
							<path fill="#ECEFF0" d="M1105.9,979.7l3.6-6c-8.9-1-17.8-1-26.7,0l3.6,6C1092.8,979.2,1099.4,979.2,1105.9,979.7z"/>
						</g>
						<g>
							<path fill="#ECEFF0" d="M1086.5,1206.1l-3.6,6c8.7,1,17.6,1,26.3,0l-3.6-6C1099.3,1206.6,1092.9,1206.6,1086.5,1206.1z"/>
						</g>
						<g>
							<path fill="#ECEFF0" d="M1209.4,1102.8l6,3.6c1-8.9,1-17.8,0-26.7l-6,3.6C1210,1089.8,1210,1096.3,1209.4,1102.8z"/>
						</g>
						<g>
							<path fill="#ECEFF0" d="M983.1,1083.5l-6-3.6c-0.9,8.7-0.9,17.6,0,26.3l6-3.6C982.5,1096.3,982.5,1089.9,983.1,1083.5z"/>
						</g>
						<g>
							<path fill="#ECEFF0" d="M1176.6,1012.6c2.3,2.3,4.5,4.8,6.6,7.2l6.8-1.7c-2.8-3.5-5.7-6.8-8.9-10c-3.2-3.2-6.6-6.2-10-8.9
								l-1.7,6.8C1171.8,1008.1,1174.3,1010.2,1176.6,1012.6z"/>
						</g>
						<g>
							<path fill="#ECEFF0" d="M1015.9,1173.3c-2.3-2.3-4.4-4.6-6.4-7l-6.8,1.7c2.7,3.4,5.6,6.7,8.8,9.8c3.1,3.1,6.4,6,9.8,8.8
								l1.7-6.8C1020.5,1177.6,1018.2,1175.5,1015.9,1173.3z"/>
						</g>
						<g>
							<path fill="#ECEFF0" d="M1176.6,1173.3c-2.4,2.4-4.8,4.6-7.3,6.7l1.7,6.8c3.5-2.8,6.9-5.8,10.1-9c3.1-3.1,6-6.4,8.7-9.7
								l-6.8-1.7C1181,1168.7,1178.9,1171,1176.6,1173.3z"/>
						</g>
						<g>
							<path fill="#ECEFF0" d="M1015.9,1012.6c2.2-2.2,4.6-4.3,7-6.4l-1.7-6.8c-3.4,2.7-6.6,5.6-9.7,8.7c-3.2,3.2-6.2,6.6-9,10.1
								l6.8,1.7C1011.4,1017.4,1013.6,1014.9,1015.9,1012.6z"/>
						</g>
					</g>
				</g>
			</g>
			<g>
				<g>
					<g>
						<g>
							<g>
								<polygon fill="#153359" points="1140.3,1048.9 1096.1,1081 1102.2,1087 								"/>
							</g>
							<g>
								<polygon fill="#153359" points="1089.6,1099.6 1083.6,1093.5 1051.9,1137.3 								"/>
							</g>
							<g>
								<polygon fill="#153359" points="1140.3,1048.8 1108.2,1093.1 1102.1,1087 								"/>
							</g>
							<g>
								<polygon fill="#153359" points="1089.6,1099.6 1095.7,1105.6 1051.9,1137.3 								"/>
							</g>
						</g>
					</g>
				</g>
				<polygon fill="#ECEFF0" points="1166.2,1093.1 1166.3,1093.1 1166.3,1093.1 1166.3,1093.1 1166.2,1093.1 1107.9,1081.3 
					1096.1,1022.9 1096.1,1022.8 1096.1,1022.9 1096.1,1022.8 1096.1,1022.9 1084.4,1081.1 1026,1093.1 1025.9,1093.1 
					1025.9,1093.1 1025.9,1093.1 1026,1093.1 1084.2,1105 1096.1,1163.2 1096.1,1163.3 1096.1,1163.3 1096.1,1163.3 1096.1,1163.2 
					1108.1,1104.8 				"/>
				<g>
					<path fill="#FFC50B" d="M1044.9,1046.5l35,59.5c0.7,1.1,2.7,2.9,3.8,3.5l62.5,30.3c1.9,1,3.9-1.2,2.7-3l-35.5-59.1
						c-0.7-1.1-2.7-2.9-3.8-3.5l-62-30.7C1045.7,1042.5,1043.8,1044.7,1044.9,1046.5z"/>
					<circle fill="#3CC2D9" cx="1097.2" cy="1091.9" r="15.8"/>
				</g>
			</g>
			<g>
				<g>
					<path fill="#153359" d="M1096.2,1224.7l0-2.4c2.3,0,4.7-0.1,7-0.2l0.1,2.4C1101,1224.6,1098.6,1224.7,1096.2,1224.7z
						 M1089.1,1224.5c-2.4-0.1-4.7-0.3-7.1-0.6l0.3-2.4c2.3,0.2,4.7,0.4,7,0.6L1089.1,1224.5z M1110.5,1223.9l-0.3-2.4
						c2.3-0.2,4.6-0.6,6.9-0.9l0.4,2.4C1115.2,1223.3,1112.8,1223.6,1110.5,1223.9z M1075,1223c-2.3-0.4-4.7-0.8-7-1.3l0.5-2.3
						c2.3,0.5,4.6,0.9,6.9,1.3L1075,1223z M1124.5,1221.6l-0.5-2.3c2.3-0.5,4.5-1.1,6.8-1.7l0.6,2.3
						C1129.1,1220.5,1126.8,1221.1,1124.5,1221.6z M1061.1,1219.9c-2.3-0.6-4.6-1.3-6.8-2.1l0.8-2.3c2.2,0.7,4.5,1.4,6.7,2
						L1061.1,1219.9z M1138.2,1217.8l-0.8-2.3c2.2-0.7,4.4-1.6,6.6-2.4l0.9,2.2C1142.7,1216.2,1140.5,1217,1138.2,1217.8z
						 M1047.5,1215.4c-2.2-0.9-4.4-1.8-6.6-2.8l1-2.2c2.1,1,4.3,1.9,6.4,2.8L1047.5,1215.4z M1151.4,1212.5l-1-2.2
						c2.1-1,4.2-2,6.3-3.1l1.1,2.1C1155.7,1210.4,1153.6,1211.5,1151.4,1212.5z M1034.6,1209.4c-2.1-1.1-4.2-2.3-6.2-3.5l1.2-2
						c2,1.2,4.1,2.4,6.1,3.4L1034.6,1209.4z M1164,1205.8l-1.2-2c2-1.2,4-2.5,5.9-3.8l1.3,2C1168,1203.3,1166,1204.6,1164,1205.8z
						 M1022.4,1202.1c-1.9-1.3-3.9-2.7-5.8-4.2l1.4-1.9c1.9,1.4,3.8,2.8,5.7,4.1L1022.4,1202.1z M1175.8,1197.8l-1.4-1.9
						c1.9-1.4,3.7-2.9,5.4-4.4l1.5,1.8C1179.5,1194.9,1177.7,1196.4,1175.8,1197.8z M1011,1193.5c-1.8-1.5-3.6-3.1-5.3-4.8l1.6-1.7
						c1.7,1.6,3.4,3.2,5.2,4.7L1011,1193.5z M1186.6,1188.6l-1.6-1.7c1.7-1.6,3.4-3.3,4.9-4.9l1.7,1.6
						C1190,1185.3,1188.4,1187,1186.6,1188.6z M1000.7,1183.7c-1.6-1.7-3.2-3.5-4.8-5.3l1.8-1.5c1.5,1.8,3.1,3.5,4.7,5.2
						L1000.7,1183.7z M1196.4,1178.3l-1.8-1.5c1.5-1.8,3-3.6,4.4-5.5l1.9,1.4C1199.5,1174.6,1198,1176.4,1196.4,1178.3z
						 M991.4,1172.8c-1.4-1.9-2.8-3.8-4.2-5.8l2-1.3c1.3,1.9,2.7,3.8,4.1,5.7L991.4,1172.8z M1205,1166.9l-2-1.3
						c1.3-1.9,2.6-3.9,3.8-5.9l2,1.2C1207.7,1162.9,1206.4,1165,1205,1166.9z M983.4,1161.1c-1.2-2-2.4-4.1-3.5-6.2l2.1-1.1
						c1.1,2,2.3,4.1,3.5,6.1L983.4,1161.1z M1212.4,1154.7l-2.1-1.1c1.1-2.1,2.1-4.2,3.1-6.3l2.2,1
						C1214.6,1150.5,1213.5,1152.6,1212.4,1154.7z M976.7,1148.5c-1-2.1-1.9-4.3-2.8-6.5l2.2-0.9c0.9,2.1,1.8,4.3,2.8,6.4
						L976.7,1148.5z M1218.4,1141.8l-2.2-0.9c0.9-2.2,1.7-4.4,2.4-6.6l2.3,0.8C1220.1,1137.3,1219.3,1139.6,1218.4,1141.8z
						 M971.4,1135.3c-0.8-2.2-1.5-4.5-2.1-6.8l2.3-0.6c0.6,2.2,1.3,4.5,2.1,6.7L971.4,1135.3z M1222.9,1128.3l-2.3-0.6
						c0.6-2.2,1.2-4.5,1.7-6.8l2.3,0.5C1224.2,1123.7,1223.6,1126,1222.9,1128.3z M967.6,1121.6c-0.5-2.3-1-4.7-1.3-7l2.4-0.4
						c0.4,2.3,0.8,4.6,1.3,6.9L967.6,1121.6z M1226,1114.3l-2.4-0.4c0.4-2.3,0.7-4.6,0.9-6.9l2.4,0.3
						C1226.7,1109.6,1226.4,1112,1226,1114.3z M965.3,1107.6c-0.3-2.3-0.5-4.7-0.6-7.1l2.4-0.1c0.1,2.3,0.3,4.7,0.6,7L965.3,1107.6z
						 M1227.5,1100.2l-2.4-0.1c0.1-2.3,0.2-4.7,0.2-7v-0.5l2.4,0v0.5C1227.7,1095.4,1227.6,1097.8,1227.5,1100.2z M966.9,1093.3
						h-2.4l0-0.2c0-2.3,0.1-4.6,0.2-6.9l2.4,0.1c-0.1,2.2-0.2,4.5-0.2,6.7L966.9,1093.3z M1225.1,1085.6c-0.1-2.3-0.3-4.7-0.6-7
						l2.4-0.3c0.3,2.3,0.5,4.7,0.6,7.1L1225.1,1085.6z M967.6,1079.4l-2.4-0.2c0.2-2.4,0.6-4.7,0.9-7.1l2.4,0.4
						C968.2,1074.7,967.9,1077.1,967.6,1079.4z M1223.6,1071.7c-0.4-2.3-0.8-4.6-1.3-6.9l2.3-0.5c0.5,2.3,1,4.6,1.4,7L1223.6,1071.7
						z M969.8,1065.6l-2.3-0.5c0.5-2.3,1.1-4.6,1.7-6.9l2.3,0.6C970.9,1061,970.3,1063.3,969.8,1065.6z M1220.5,1058
						c-0.6-2.2-1.3-4.5-2.1-6.7l2.3-0.8c0.8,2.2,1.5,4.5,2.1,6.8L1220.5,1058z M973.5,1052.1l-2.3-0.8c0.8-2.3,1.6-4.5,2.4-6.7
						l2.2,0.9C975.1,1047.7,974.3,1049.9,973.5,1052.1z M1216,1044.8c-0.9-2.1-1.8-4.3-2.8-6.4l2.2-1c1,2.1,2,4.3,2.8,6.5
						L1216,1044.8z M978.7,1039.1l-2.2-1c1-2.2,2.1-4.3,3.2-6.4l2.1,1.1C980.7,1034.8,979.7,1036.9,978.7,1039.1z M1210.1,1032.1
						c-1.1-2-2.3-4.1-3.5-6.1l2-1.2c1.2,2,2.4,4.1,3.5,6.2L1210.1,1032.1z M985.2,1026.7l-2-1.2c1.2-2,2.5-4,3.8-6l2,1.3
						C987.7,1022.7,986.4,1024.7,985.2,1026.7z M1202.8,1020.2c-1.3-1.9-2.7-3.8-4.1-5.7l1.9-1.5c1.4,1.9,2.8,3.8,4.2,5.8
						L1202.8,1020.2z M993.1,1015.1l-1.9-1.4c1.4-1.9,2.9-3.8,4.5-5.6l1.8,1.5C996,1011.4,994.5,1013.2,993.1,1015.1z
						 M1194.3,1009.1c-1.5-1.8-3.1-3.5-4.7-5.2l1.7-1.6c1.6,1.7,3.2,3.5,4.8,5.3L1194.3,1009.1z M1002.1,1004.4l-1.7-1.6
						c1.6-1.7,3.3-3.4,5-5l1.6,1.7C1005.4,1001.1,1003.7,1002.7,1002.1,1004.4z M1184.7,999c-1.7-1.6-3.5-3.2-5.2-4.7l1.5-1.8
						c1.8,1.5,3.6,3.1,5.3,4.7L1184.7,999z M1012.3,994.8l-1.6-1.8c1.8-1.5,3.7-3,5.5-4.5l1.5,1.9
						C1015.8,991.8,1014,993.3,1012.3,994.8z M1174,990c-1.9-1.4-3.8-2.8-5.7-4.1l1.3-2c2,1.3,3.9,2.7,5.8,4.1L1174,990z
						 M1023.4,986.3l-1.3-2c1.9-1.3,4-2.6,6-3.9l1.2,2C1027.2,983.7,1025.3,985,1023.4,986.3z M1162.4,982.1c-2-1.2-4-2.3-6.1-3.4
						l1.1-2.1c2.1,1.1,4.2,2.3,6.2,3.5L1162.4,982.1z M1035.3,979l-1.1-2.1c2.1-1.1,4.2-2.2,6.4-3.2l1,2.2
						C1039.4,976.9,1037.3,978,1035.3,979z M1150,975.6c-2.1-1-4.3-1.9-6.4-2.8l0.9-2.2c2.2,0.9,4.4,1.8,6.6,2.8L1150,975.6z
						 M1047.9,973.1l-0.9-2.2c2.2-0.9,4.5-1.7,6.7-2.5l0.8,2.3C1052.3,971.5,1050.1,972.3,1047.9,973.1z M1137,970.5
						c-2.2-0.7-4.5-1.4-6.7-2l0.6-2.3c2.3,0.6,4.6,1.3,6.8,2.1L1137,970.5z M1061.2,968.6l-0.6-2.3c2.3-0.6,4.6-1.2,6.9-1.7l0.5,2.3
						C1065.7,967.4,1063.4,968,1061.2,968.6z M1123.5,966.8c-2.3-0.5-4.6-0.9-6.9-1.3l0.4-2.4c2.3,0.4,4.7,0.8,7,1.3L1123.5,966.8z
						 M1074.8,965.6l-0.4-2.4c2.3-0.4,4.7-0.7,7.1-1l0.3,2.4C1079.4,964.9,1077.1,965.2,1074.8,965.6z M1109.7,964.6
						c-2.3-0.2-4.6-0.4-7-0.5l0.1-2.4c2.4,0.1,4.8,0.3,7.1,0.6L1109.7,964.6z M1088.7,964.1l-0.1-2.4c2.3-0.1,4.7-0.2,7.1-0.2l0,2.4
						C1093.4,963.9,1091,963.9,1088.7,964.1z"/>
				</g>
			</g>
		</g>
		<g>
			<circle fill="#153359" cx="1096.1" cy="693.7" r="156.1"/>
			<ellipse fill="#0B2847" cx="1109.3" cy="700.2" rx="112.7" ry="116.1"/>
			<circle fill="#3CC2D9" cx="1097" cy="693.7" r="117.5"/>
			<circle fill="#ECEFF0" cx="1097" cy="693.7" r="84"/>
			<g>
				<polygon fill="#C4C6C6" points="1158.3,694.1 1158.2,694.1 1113.8,685.1 1135.4,655.3 1135.5,655.2 1135.4,655.3 1135.4,655.2 
					1135.4,655.3 1105.6,676.9 1096.6,632.5 1096.6,632.4 1096.6,632.4 1096.6,632.4 1096.6,632.5 1087.6,676.9 1057.8,655.3 
					1057.7,655.2 1057.8,655.3 1057.7,655.2 1057.8,655.3 1079.2,685 1035,694.1 1034.9,694.1 1034.9,694.1 1034.9,694.1 
					1035,694.1 1079.3,703.2 1057.8,732.9 1057.7,733 1057.8,732.9 1057.7,733 1057.8,732.9 1087.5,711.4 1096.6,755.7 
					1096.6,755.8 1096.6,755.8 1096.6,755.8 1096.6,755.7 1105.7,711.4 1135.4,732.9 1135.4,733 1135.4,732.9 1135.5,733 
					1135.4,732.9 1113.8,703.1 1158.2,694.1 1158.3,694.1 1158.3,694.1 				"/>
				<g>
					<g>
						<polygon fill="#DC1F27" points="1106.5,684.3 1088.7,702.9 1043.8,641.5 						"/>
						<polygon fill="#153359" points="1088.7,702.9 1106.4,684.2 1150.2,746.7 						"/>
					</g>
				</g>
			</g>
			<g>
				<g>
					<circle fill="#153359" cx="1166.1" cy="623.9" r="4.6"/>
					<circle fill="#153359" cx="1026.4" cy="763.6" r="4.6"/>
					<g>
						<circle fill="#153359" cx="1166.1" cy="763.6" r="4.6"/>
						<circle fill="#153359" cx="1026.4" cy="623.9" r="4.6"/>
					</g>
				</g>
				<g>
					<g>
						<g>
							<path fill="#ECEFF0" d="M1091.1,599v-13h3.4l2.7,4.8c0.8,1.4,1.5,3,2.1,4.5h0.1c-0.2-1.7-0.3-3.5-0.3-5.4V586h2.7v13h-3.1
								l-2.8-5c-0.8-1.4-1.6-3.1-2.3-4.6l-0.1,0c0.1,1.7,0.1,3.6,0.1,5.7v3.9H1091.1z"/>
						</g>
						<g>
							<path fill="#ECEFF0" d="M1092.6,798.6c0.8,0.4,2,0.8,3.3,0.8c1.4,0,2.1-0.6,2.1-1.4c0-0.8-0.6-1.3-2.2-1.8
								c-2.2-0.8-3.6-2-3.6-3.8c0-2.2,1.9-3.9,4.9-3.9c1.5,0,2.6,0.3,3.3,0.7l-0.7,2.4c-0.5-0.3-1.4-0.6-2.7-0.6
								c-1.3,0-1.9,0.6-1.9,1.3c0,0.8,0.7,1.2,2.4,1.8c2.3,0.8,3.4,2,3.4,3.9c0,2.2-1.7,4-5.3,4c-1.5,0-3-0.4-3.7-0.8L1092.6,798.6z
								"/>
						</g>
						<g>
							<path fill="#ECEFF0" d="M991.3,700.2l-3.1-13h3.1l1,5.4c0.3,1.5,0.6,3.2,0.8,4.5h0c0.2-1.4,0.5-3,0.9-4.6l1.1-5.3h3.1l1,5.5
								c0.3,1.5,0.5,2.9,0.7,4.4h0c0.2-1.4,0.5-3,0.8-4.5l1.1-5.3h3l-3.4,13h-3.2l-1.1-5.6c-0.3-1.3-0.5-2.5-0.6-4h0
								c-0.2,1.5-0.4,2.7-0.8,4l-1.2,5.6H991.3z"/>
						</g>
						<g>
							<path fill="#ECEFF0" d="M1198.7,694.7h-4.8v3.1h5.4v2.4h-8.3v-13h8v2.4h-5.1v2.7h4.8V694.7z"/>
						</g>
					</g>
				</g>
			</g>
		</g>
	</g>
</g>
</svg>
